<svg xmlns="http://www.w3.org/2000/svg" width="46.501" height="86.97" viewBox="0 0 46.501 86.97">
  <g id="Grupo_9" data-name="Grupo 9" transform="translate(-273.345 12.302)">
    <path id="Trazado_20" data-name="Trazado 20" d="M126.374,86.779c-6.187-2.32-11.049-11.049-11.049-19.888,0-5.635.442-6.961,3.425-10.165,2.983-3.315,3.315-4.2,2.652-8.066-.552-3.2-1.436-4.64-3.425-5.414-4.088-1.436-8.287-13.148-4.751-13.148.663,0,.994-.773.552-1.657-.331-.884-.11-1.657.442-1.657s1.547-2.762,2.21-6.077c.884-4.088,1.878-6.187,3.315-6.629a4.317,4.317,0,0,0,2.541-2.652c1.215-4.972,23.976-4.42,29.832.773A8.021,8.021,0,0,1,154,17.5c0,1.989.552,3.978,1.1,4.309.663.331,1.1,1.657,1.1,2.873,0,1.1.552,2.1,1.326,2.1,1.878,0-.331,1.878-2.983,2.541-1.878.442-1.878.552.442.663,2.21.11,2.541.552,1.989,3.757a36.432,36.432,0,0,1-1.657,6.85c-4.861,14.253-4.972,15.247-2.873,16.9,1.215.773,1.989,1.989,1.878,2.541-.221.552,0,.884.552.884,4.088-.663,4.53,2.431,1.768,10.828-2.32,6.961-6.519,12.375-11.049,14.253-3.536,1.547-15.91,1.989-19.225.773Zm13.259-27.953c1.215-.773.552-1.1-2.541-1.1-2.541,0-3.978.442-3.536,1.1C134.44,60.262,137.423,60.262,139.633,58.826Z" transform="translate(161.447 -12.81)" fill="#ffebd3"/>
    <path id="Trazado_43" data-name="Trazado 43" d="M126.85,56.3c-3.2-3.425-6.85-10.275-6.85-13.148,0-.663,2.21.773,4.972,3.315,4.861,4.53,5.082,4.53,12.154,4.2,7.845-.442,10.5-1.989,13.59-7.955,2.431-4.64,3.094-1.436.884,4.2-3.425,8.839-8.618,12.927-16.352,12.927-4.088,0-5.414-.663-8.4-3.536Z" transform="translate(162.296 -9.401)"/>
    <path id="Trazado_44" data-name="Trazado 44" d="M114.1,29.814a13,13,0,0,1-1.1-4.42c0-2.762,4.088-12.264,6.3-14.805a18.242,18.242,0,0,0,2.983-4.42,6.32,6.32,0,0,1,3.978-2.762,22.433,22.433,0,0,0,5.3-1.547c1.878-.994,3.867-.884,8.839.663a49.472,49.472,0,0,1,8.729,3.536c3.646,2.32,7.734,11.159,8.176,17.568.442,4.861.221,5.524-1.768,5.856-2.541.331-4.972-3.978-4.972-8.618a7.655,7.655,0,0,0-1.878-4.751c-5.193-4.64-22.1-5.193-23.2-.773a4.145,4.145,0,0,1-2.652,2.762c-1.436.442-2.431,2.541-3.315,7.292-1.326,6.74-3.2,8.4-5.414,4.42Z" transform="translate(161.562 -13.52)"/>
  </g>
</svg>
