<svg xmlns="http://www.w3.org/2000/svg" width="169" height="245.043" viewBox="0 0 169 245.043">
  <g id="Grupo_8" data-name="Grupo 8" transform="translate(-852 -436.217)">
    <g id="kisspng-just-do-it-drawing-desktop-wallpaper-photography-shia-la" transform="translate(795 435)">
      <g id="Grupo_3" data-name="Grupo 3" transform="translate(81.719 8.695)">
        <path id="Trazado_18" data-name="Trazado 18" d="M164,221.85c.111-5.193,1.326-6.85,5.082-6.85,2.652,0,3.757.552,3.757,1.657a1.7,1.7,0,0,1-1.657,1.657c-.994,0-2.983,1.215-4.42,2.762C164.442,223.287,164,223.4,164,221.85Z" transform="translate(-71.808 13.726)" fill="#ffebd3"/>
        <path id="Trazado_19" data-name="Trazado 19" d="M112.977,214.325a40.322,40.322,0,0,0-5.745-13.48C98.724,187.808,90.99,172.339,92.1,170.24c.663-1.326.331-2.983-1.1-5.635C82.925,150.463,80.162,142.4,80.6,134.332c.773-14.805,3.2-31.489,4.42-31.489.884,0,1.1-.884.663-2.431-.552-2.21-.331-2.32,6.077-1.657a71,71,0,0,1,12.927,2.983c5.635,2.21,6.187,2.652,6.187,5.856a52.431,52.431,0,0,1-2.32,11.159c-4.972,16.794-4.861,15.91-2.762,21.435,1.1,2.873,3.425,9.723,5.193,15.137,1.768,5.524,4.309,11.933,5.745,14.363,2.431,4.2,2.762,4.42,7.4,4.2,2.762-.111,7.624-.552,10.828-.994,5.193-.552,5.745-.884,5.745-3.315,0-3.867,4.309-3.646,21.766.663,3.2.773,3.425.663,3.978-2.652a128.828,128.828,0,0,1,5.082-15.358c2.541-6.629,4.53-13.259,4.53-14.916.11-2.762.221-2.762,1.547-.994,2.21,2.873,2.873,2.32,2.873-2.652,0-5.3-4.309-16.242-5.635-14.142-.442.773-.11,2.873.773,4.64.994,1.657,1.547,3.978,1.326,4.861-.773,4.2-7.513-15.026-7.513-21.324l.111-4.309,9.612-4.751c10.5-4.972,17.678-6.187,16.242-2.652-.994,2.32-.994,1.547.663,15.137a216.688,216.688,0,0,1,1.436,22.65c.111,10.607-.221,12.264-3.2,18.783-1.768,3.978-4.64,9.723-6.408,12.706-7.4,12.706-7.513,12.927-5.414,14.474,1.657,1.326,1.547,1.436-1.326,1.547-2.541,0-2.983.331-1.989,1.326.773.773,1.326,2.873,1.326,4.861,0,2.873-1.215,4.64-7.292,10.275a119.817,119.817,0,0,1-13.038,10.717l-5.745,3.757-11.049-.663c-5.966-.442-10.607-.331-10.165.11,1.657,1.768-1.326,3.757-3.867,2.652-1.768-.773-3.536-.663-6.629.663-2.21.884-4.088,2.1-4.088,2.541s-.994,1.436-2.21,2.1c-1.989,1.326-2.21.994-3.425-5.3Zm29.058-28.285c4.53-2.431,5.082-3.094,3.425-3.757a3.3,3.3,0,0,0-3.646,1.215,8.626,8.626,0,0,1-4.64,2.762c-1.768.442-2.762,1.215-2.431,1.768.884,1.436,1.215,1.326,7.292-1.989Zm-36.682-64.525a1.909,1.909,0,0,0-1.768-2.1c-1.1,0-1.547.663-1.215,1.547a1.681,1.681,0,0,1-.663,2.21q-1.492.5.331,1.657c1.436.994,1.326,1.215-.552,1.215s-1.878.221-.552,1.1c1.436.884,1.326,1.1-.221,1.1-2.32,0-2.431.663-.663,2.652,1.1,1.215,1.768.663,3.315-2.983a21.133,21.133,0,0,0,1.989-6.408Z" transform="translate(-80.559 1.032)" fill="#ffebd3"/>
        <path id="Trazado_20" data-name="Trazado 20" d="M126.374,86.779c-6.187-2.32-11.049-11.049-11.049-19.888,0-5.635.442-6.961,3.425-10.165,2.983-3.315,3.315-4.2,2.652-8.066-.552-3.2-1.436-4.64-3.425-5.414-4.088-1.436-8.287-13.148-4.751-13.148.663,0,.994-.773.552-1.657-.331-.884-.11-1.657.442-1.657s1.547-2.762,2.21-6.077c.884-4.088,1.878-6.187,3.315-6.629a4.317,4.317,0,0,0,2.541-2.652c1.215-4.972,23.976-4.42,29.832.773A8.021,8.021,0,0,1,154,17.5c0,1.989.552,3.978,1.1,4.309.663.331,1.1,1.657,1.1,2.873,0,1.1.552,2.1,1.326,2.1,1.878,0-.331,1.878-2.983,2.541-1.878.442-1.878.552.442.663,2.21.11,2.541.552,1.989,3.757a36.432,36.432,0,0,1-1.657,6.85c-4.861,14.253-4.972,15.247-2.873,16.9,1.215.773,1.989,1.989,1.878,2.541-.221.552,0,.884.552.884,4.088-.663,4.53,2.431,1.768,10.828-2.32,6.961-6.519,12.375-11.049,14.253-3.536,1.547-15.91,1.989-19.225.773Zm13.259-27.953c1.215-.773.552-1.1-2.541-1.1-2.541,0-3.978.442-3.536,1.1C134.44,60.262,137.423,60.262,139.633,58.826Z" transform="translate(-77.272 -7.985)" fill="#ffebd3"/>
      </g>
      <g id="Grupo_4" data-name="Grupo 4" transform="translate(69.5 238.836)">
        <path id="Trazado_31" data-name="Trazado 31" d="M160.908,220.314c-3.315-3.425-2.762-4.42.884-1.878,1.657,1.326,2.541,1.326,5.082,0a12.512,12.512,0,0,1,6.187-1.1c2.983.442,2.983.442-.442.663a7.118,7.118,0,0,0-5.635,2.873,13.011,13.011,0,0,1-2.541,2.762,17.647,17.647,0,0,1-3.536-3.315Z" transform="translate(-60.144 -216.204)" fill="#c80001"/>
        <path id="Trazado_32" data-name="Trazado 32" d="M182.234,218.086l-7.734-.663,8.066-.221c4.64-.111,7.955.221,7.955.884s-.111.994-.221.884C190.079,218.859,186.543,218.528,182.234,218.086Z" transform="translate(-58.488 -216.186)" fill="#c80001"/>
        <path id="Trazado_33" data-name="Trazado 33" d="M80,217.075l-10.5-.663,9.391-.11c5.193-.111,13.59.221,18.783.663l9.391.884H98.779C94.249,217.738,85.742,217.407,80,217.075Z" transform="translate(-69.5 -216.281)" fill="#c80001"/>
      </g>
      <g id="Grupo_5" data-name="Grupo 5" transform="translate(70.052 178.69)">
        <path id="Trazado_34" data-name="Trazado 34" d="M157.017,218.657c-5.524-5.524-12.375-11.38-15.247-12.927s-5.193-3.2-5.193-3.757c0-.663-1.326-2.541-2.983-4.42l-3.094-3.315,4.088,2.983c3.425,2.541,4.53,2.873,6.408,1.878,1.215-.663,2.21-.773,2.21-.11,0,4.42,9.5-.884,21.656-12.264l7.292-6.85-3.094-2.652c-1.768-1.436-2.652-2.873-2.1-3.094.663-.221.994-2.32.773-4.53-.552-4.309-.773-4.309,6.408.552,3.867,2.652,7.624,8.066,7.734,11.38a6.481,6.481,0,0,0,2.21,3.757c1.326,1.1,2.1,2.652,1.768,3.425s.442,2.762,1.768,4.309c2.541,3.2,3.646,6.961,5.856,19.335,1.878,9.944,1.989,12.485.663,11.712-.552-.331-5.635-.663-11.27-.773-9.833-.11-10.386,0-12.817,2.762a16.864,16.864,0,0,1-2.762,2.873c-.221,0-4.861-4.64-10.275-10.275Z" transform="translate(-63.655 -161.362)" fill="#2a2b3d"/>
        <path id="Trazado_35" data-name="Trazado 35" d="M80.275,223.116C74.64,222.9,70,222.232,70,221.79c0-4.088,3.757-19.114,6.077-24.086,1.547-3.425,2.762-6.629,2.762-7.292s.994-2.21,2.21-3.536,3.425-5.524,4.972-9.281a86.329,86.329,0,0,1,5.635-11.933c3.315-5.745,2.873-6.077,9.281,6.519,2.431,4.64,6.85,12.264,9.833,16.9,3.757,5.635,5.745,10.054,6.3,13.59a23.428,23.428,0,0,0,1.657,6.85c.552,1.326-.663,2.873-5.193,6.077-3.315,2.431-6.3,5.193-6.629,6.3C106.24,224,106.682,224,80.275,223.116Z" transform="translate(-70 -161.844)" fill="#2a2b3d"/>
        <path id="Trazado_36" data-name="Trazado 36" d="M118.085,201.911a32.667,32.667,0,0,0-.663-5.745c-.552-2.541-.331-2.431,2.762,1.1a22.177,22.177,0,0,1,3.425,4.53c0,.331-1.215,1.215-2.762,1.878C118.306,204.895,118.085,204.784,118.085,201.911Z" transform="translate(-65.051 -158.427)" fill="#2a2b3d"/>
        <path id="Trazado_37" data-name="Trazado 37" d="M126.058,197.167c-2.1-3.094-2.21-3.315-.331-2.21,3.094,1.768,5.966,4.088,5.966,4.972C131.693,201.808,128.268,200.15,126.058,197.167Z" transform="translate(-64.295 -158.434)" fill="#2a2b3d"/>
        <path id="Trazado_38" data-name="Trazado 38" d="M129.033,185.571c-6.3-4.972-6.077-8.95.663-10.386a5.771,5.771,0,0,0,4.53-3.978c1.326-3.536,5.082-4.309,7.292-1.657a10.667,10.667,0,0,0,4.64,2.21c4.861.884,3.867,3.757-2.873,8.066-3.094,1.989-6.85,4.53-8.4,5.745l-2.983,2.32Z" transform="translate(-64.287 -161.201)" fill="#2a2b3d"/>
        <path id="Trazado_39" data-name="Trazado 39" d="M112.654,169.867c-1.215-3.315-.663-3.867,3.315-3.867,3.425,0,3.867.331,3.536,2.541C119.063,171.635,113.759,172.629,112.654,169.867Z" transform="translate(-65.587 -161.408)" fill="#2a2b3d"/>
      </g>
      <g id="Grupo_6" data-name="Grupo 6" transform="translate(81.654 61.468)">
        <path id="Trazado_40" data-name="Trazado 40" d="M139.169,182.645c.552-2.431.331-2.873-1.768-2.873a10.211,10.211,0,0,0-4.2.994,51.63,51.63,0,0,1-9.17,1.657l-7.292.663-3.425-6.3a123.331,123.331,0,0,1-5.856-14.695c-1.326-4.53-3.646-11.27-5.082-14.805l-2.762-6.519L102.6,133.7c1.878-4.42,2.762-7.955,2.32-9.612-.331-1.436.11-4.751.994-7.292s1.657-4.861,1.657-5.082c0-.773-12.154-4.751-16.9-5.414-2.873-.442-5.193-1.326-5.193-1.878s-1.1-1.989-2.431-3.094L80.5,99.337l2.431-2.652c1.326-1.436,4.64-7.071,7.4-12.485,3.757-7.513,6.077-10.828,9.723-13.479,16.794-12.485,15.247-11.6,15.358-8.839,0,1.326.331,1.768.663,1.1.773-2.1,5.856-1.768,5.856.221,0,2.652,3.867,9.612,6.961,12.6,6.077,5.524,17.678,3.867,23.2-3.315,2.762-3.757,6.3-12.706,6.3-16.021,0-1.326,1.547-.884,6.74,1.878,9.391,5.082,16.352,11.712,20.661,19.667,1.989,3.757,5.3,9.723,7.4,13.148,2.762,4.751,3.425,6.74,2.652,8.176a3.514,3.514,0,0,1-2.32,1.989c-2.652,0-20.661,9.391-20.772,10.828a15.78,15.78,0,0,0,1.657,4.64c1.1,2.21,1.326,3.978.663,5.745s-.442,3.536.663,5.745a9.609,9.609,0,0,1,.994,5.635c-.331,1.436.221,4.53,1.436,7.182l1.989,4.53-4.64,12.485c-2.541,6.85-4.972,13.038-5.414,13.811-.552.773,0,2.32,1.1,3.536a7.317,7.317,0,0,1,1.657,5.745c-.442,4.64-.884,4.972-3.094,1.989-2.1-3.094-7.4-5.414-15.137-6.74a81.919,81.919,0,0,1-8.066-1.768c-2.21-.552-2.541-.331-2.541,1.989,0,2.983,2.652,5.856,6.077,6.74,1.215.221,0,.442-2.762.442a21.835,21.835,0,0,0-6.961.773c-1.768.773-1.878.552-1.215-1.989Z" transform="translate(-80.5 -55.749)" fill="#2f2f2f"/>
      </g>
      <g id="Grupo_7" data-name="Grupo 7" transform="translate(109.068 1.217)">
        <path id="Trazado_41" data-name="Trazado 41" d="M168.128,178.741a1.706,1.706,0,0,0-1.768-1.436c-.994,0-2.541-1.768-3.536-3.867s-2.762-4.088-3.757-4.42c-2.1-.663-2.431-4.64-.442-5.3,1.657-.663,5.193.884,8.729,4.088,1.768,1.547,3.536,2.873,3.978,2.873s.773.773.773,1.657-.442,1.657-.994,1.657-.663.552-.331,1.1c.331.663.221,1.1-.442,1.1-.552,0-1.326.884-1.547,1.989-.331.994-.552,1.215-.663.552Z" transform="translate(-99.86 15.809)"/>
        <path id="Trazado_42" data-name="Trazado 42" d="M109.055,87.345c-2.983-2.762-4.972-8.618-2.873-8.618.663,0,.994-.773.552-1.657-.331-.884-.11-1.657.552-1.657s.994-.773.552-1.657c-.331-.884-.221-1.657.331-1.657s.773-1.547.552-3.536a10.655,10.655,0,0,1,1.326-6.187C112.48,58.729,120.767,50,121.761,50c1.547,0,.994,4.972-.773,7.292a8.752,8.752,0,0,0-1.657,4.64c0,1.436-1.215,3.757-2.762,5.3-2.431,2.431-2.652,3.536-2.541,11.491.221,10.386-.884,12.375-4.972,8.618Z" transform="translate(-105.312 3.899)"/>
        <path id="Trazado_43" data-name="Trazado 43" d="M126.85,56.3c-3.2-3.425-6.85-10.275-6.85-13.148,0-.663,2.21.773,4.972,3.315,4.861,4.53,5.082,4.53,12.154,4.2,7.845-.442,10.5-1.989,13.59-7.955,2.431-4.64,3.094-1.436.884,4.2-3.425,8.839-8.618,12.927-16.352,12.927-4.088,0-5.414-.663-8.4-3.536Z" transform="translate(-103.772 2.901)"/>
        <path id="Trazado_44" data-name="Trazado 44" d="M114.1,29.814a13,13,0,0,1-1.1-4.42c0-2.762,4.088-12.264,6.3-14.805a18.242,18.242,0,0,0,2.983-4.42,6.32,6.32,0,0,1,3.978-2.762,22.433,22.433,0,0,0,5.3-1.547c1.878-.994,3.867-.884,8.839.663a49.472,49.472,0,0,1,8.729,3.536c3.646,2.32,7.734,11.159,8.176,17.568.442,4.861.221,5.524-1.768,5.856-2.541.331-4.972-3.978-4.972-8.618a7.655,7.655,0,0,0-1.878-4.751c-5.193-4.64-22.1-5.193-23.2-.773a4.145,4.145,0,0,1-2.652,2.762c-1.436.442-2.431,2.541-3.315,7.292-1.326,6.74-3.2,8.4-5.414,4.42Z" transform="translate(-104.506 -1.217)"/>
      </g>
    </g>
    <rect id="Rectángulo_1" data-name="Rectángulo 1" width="169" height="66" transform="translate(852 531)" fill="#fff"/>
    <text id="SHIA" transform="translate(877 581)" fill="#3b3b3b" font-size="49" font-family="Rubik" font-weight="700"><tspan x="0" y="0">SHIA</tspan></text>
  </g>
</svg>
